<!-- SPDX-FileCopyrightText: 2026 overpolish -->
<!-- SPDX-FileCopyrightText: 2026 Lucide Icons and Contributors -->
<!-- SPDX-License-Identifier: GPL-3.0-or-later AND ISC -->
<!-- Canonical Lucide 24x24 paths from lucide-react 1.28.0. Cell zero is blank. -->
<svg xmlns="http://www.w3.org/2000/svg" width="576" height="96" viewBox="0 0 144 24" fill="none" stroke="#fff" stroke-width="2" stroke-linecap="round" stroke-linejoin="round">
  <g transform="translate(24 0)">
    <path d="M18 6 6 18"/><path d="m6 6 12 12"/>
  </g>
  <g transform="translate(48 0)">
    <rect width="14" height="14" x="8" y="8" rx="2" ry="2"/>
    <path d="M4 16c-1.1 0-2-.9-2-2V4c0-1.1.9-2 2-2h10c1.1 0 2 .9 2 2"/>
  </g>
  <g transform="translate(72 0)">
    <path d="M13 4v16"/><path d="M17 4v16"/>
    <path d="M19 4H9.5a4.5 4.5 0 0 0 0 9H13"/>
  </g>
  <g transform="translate(96 0)">
    <path d="M3 12a9 9 0 1 0 9-9 9.75 9.75 0 0 0-6.74 2.74L3 8"/>
    <path d="M3 3v5h5"/>
  </g>
  <g transform="translate(120 0)">
    <path d="M10 11v6"/><path d="M14 11v6"/>
    <path d="M19 6v14a2 2 0 0 1-2 2H7a2 2 0 0 1-2-2V6"/>
    <path d="M3 6h18"/><path d="M8 6V4a2 2 0 0 1 2-2h4a2 2 0 0 1 2 2v2"/>
  </g>
</svg>
